<svg xmlns="http://www.w3.org/2000/svg" xml:space="preserve" style="shape-rendering:geometricPrecision;text-rendering:geometricPrecision;image-rendering:optimizeQuality;fill-rule:evenodd;clip-rule:evenodd" viewBox="0 0 3000 1680"><defs><style>.fil3{fill:#000}</style></defs><g id="Layer_x0020_1"><path d="M22 11h664v407H22z" style="fill:#f80c0c"/><path d="M467 11v407H233V11z" style="fill:#b0c502"/><path d="M465 418V11h221v407z" style="fill:#1b86ff"/><path d="M102 11c0 4-1 7-1 9 0 7-2 48-2 48s4 20 17 24-15-17-8-25c6-8 8-5 9 5 1 11 12 54 9 66-2 12 0 65 0 65s16-3 19 3 9 114 8 123c-1 8 0 43-15 52-15 8-20 19-20 19h30s18-16 25-26c7-11 3 25 3 25h6l2-30 4 27 7 1v-33s14-12-5-31-3-14-3-14 24-76 11-117c-14-40 1-13 1-13s-5-82 0-96c5-15 13-34 13-51 0-10-2-22-4-31H101zM252 11v12c-1 10-13 41-4 55 8 14 13 23 13 16s-4-17-2-24 5 20 6 12 4-23 3-32c-1-8 1-22 1-39h-17zm28 0c2 24 3 60 3 67 0 10 2 65 3 84s14 67 12 86 7 79 5 90-16 26-25 30c-9 3-33 6-33 6s-14 12 14 14c27 2 32-4 38-4s19-1 19-1l6 6 16-3s12-2 12-10c0-7 5-135 6-141s-1-53-5-65-6-37 1-28c7 10 28 78 27 89s-6 81-11 92c-4 12-8 15-6 21s2 24 2 24-33 25-40 29c-7 3-20 5 4 8s41 1 53-3 16-1 16-1l12 1 3-18 5-7s2-46 3-54 9-105 6-114c-3-10-13-54-13-66s-2-100-3-108-2-15-3-23v-1H280zM502 11c-1 9-2 16-1 19 3 9 17 94 16 114s2 36 3 47c1 10 8 128 8 128s6 24 1 35c-5 10-42 20-32 24 9 5 21 2 21 2s-22 15 13 14 41-3 49-3 16 5 16-7 8-134 3-155-8-37-10-59 3-62 8-77 14-23 10-40c-3-16-5-20-5-20s6-10 8-23H501zM51 58h26v33H51z" class="fil3"/><path d="M57 58h13v336H57zM628 58h25v33h-25z" class="fil3"/><path d="M634 58h13v336h-13z" class="fil3"/><path d="M65 63h571v17H65z" class="fil3"/><path d="M725 365c8 4 16 6 23 6 10 0 17-3 23-10 6-6 9-16 9-28 0-10-1-19-3-29-4-18-12-41-23-70s-19-55-24-78c-3-13-4-28-4-45 0-35 7-61 20-77s31-24 52-24c10 0 21 2 34 6v55c-8-4-14-6-21-6-9 0-17 4-23 12s-10 19-10 34c0 10 1 19 3 29 4 18 11 40 21 66 12 33 21 62 27 88 3 13 4 27 4 42 0 30-7 52-21 68s-31 24-52 24c-9 0-20-2-34-7v-57zM851 13h54v412h-54V13zm80 0h54v358h32v55h-85V14zm75 0h55l19 238 16-238h55l-48 416h-45l-52-416zm162 0h92v54h-38v130h38v54h-38v120h38v54h-92V13zm110 0h29c34 0 60 10 79 30s28 48 28 84c0 20-4 39-11 54-5 11-14 22-25 32 8 9 15 18 19 27 8 18 15 41 20 69s9 67 12 116h-54c-2-61-8-107-16-135-6-22-15-37-26-46v181h-54V13zm58 60v118c9-4 15-11 20-22 5-10 7-23 7-38s-2-28-7-38-12-17-20-21zm102 293c8 4 16 6 23 6 10 0 17-3 23-10 6-6 9-16 9-28 0-10-1-19-3-29-4-18-12-41-23-70s-19-55-24-78c-3-13-4-28-4-45 0-35 7-61 20-77s31-24 52-24c10 0 21 2 34 6v55c-8-4-14-6-21-6-9 0-17 4-23 12s-10 19-10 34c0 10 1 19 3 29 4 18 11 40 21 66 12 33 21 62 27 88 3 13 4 27 4 42 0 30-7 52-21 68s-31 24-52 24c-9 0-20-2-34-7v-57zm238 54c-7 6-15 9-25 9-27 0-49-19-66-56-16-37-25-89-25-156 0-75 12-131 36-170 16-25 33-37 53-37 9 0 18 3 26 8v52c-6-3-11-5-16-5-10 0-18 6-26 19-12 22-18 64-18 125 0 64 4 107 12 128s19 32 32 32c5 0 10-2 15-5v56zm19-407h29c34 0 60 10 79 30s28 48 28 84c0 20-4 39-11 54-5 11-14 22-25 32 8 9 15 18 19 27 8 18 15 41 20 69s9 67 12 116h-54c-2-61-8-107-16-135-6-22-15-37-26-46v181h-54V13zm58 60v118c9-4 15-11 20-22 5-10 7-23 7-38s-2-28-7-38-12-17-20-21zm109-60h92v54h-38v130h38v54h-38v120h38v54h-92V13zm110 0h92v54h-38v130h38v54h-38v120h38v54h-92V13zm111 0h49l34 216h4l-6-216h53v412h-47l-37-229h-2l6 229h-53V13zm240 0h54v412h-54V13zm81 0h49l34 216h4l-6-216h53v412h-47l-37-229h-2l6 229h-53V13zm161 0h16c20 0 38 4 52 11 15 7 27 20 38 37s19 39 25 65 9 57 9 92c0 37-3 69-9 98s-15 52-27 69c-9 13-18 22-28 28-14 8-30 12-50 12h-25V13zm54 69v276c6-5 10-9 13-14 5-10 10-23 13-41 3-17 5-46 5-85 0-32-2-60-5-82-2-16-6-29-12-39-3-5-7-10-13-15zm107-69h54v412h-54V13zm117-3h58l42 416h-54l-3-74h-30l-5 74h-54l46-416zm30 68h-4c-2 58-3 94-3 111l-6 109h23l-4-84-5-135z" style="fill:#373435;fill-rule:nonzero"/></g></svg>